<?xml version="1.0" encoding="UTF-8"?>
<svg version="1.1" xmlns="http://www.w3.org/2000/svg" width="500" height="500">
<path d="M0 0 C165 0 330 0 500 0 C500 165 500 330 500 500 C335 500 170 500 0 500 C0 335 0 170 0 0 Z " fill="#FEFEFE" transform="translate(0,0)"/>
<path d="M0 0 C1.28894165 -0.0159874 2.5778833 -0.03197479 3.90588379 -0.04844666 C5.32201747 -0.05482718 6.7381559 -0.06021871 8.15429688 -0.06469727 C9.60721936 -0.07366638 11.06014091 -0.08278828 12.51306152 -0.09205627 C15.56634766 -0.10857072 18.61952394 -0.11624951 21.67285156 -0.11914062 C25.56213841 -0.12449499 29.45037191 -0.16203938 33.3393631 -0.20788479 C36.3456586 -0.23783379 39.35170743 -0.24486817 42.35813904 -0.24586678 C43.79012319 -0.25004204 45.22210993 -0.26236685 46.65394592 -0.28338432 C56.40986764 -0.41505845 64.49706909 0.30913509 71.89308167 7.18412781 C76.46826553 12.04855856 79.93604879 17.77378993 83.43554688 23.43139648 C84.66845028 25.39634661 85.90152801 27.36118735 87.13476562 29.32592773 C88.06748291 30.81987061 88.06748291 30.81987061 89.01904297 32.34399414 C91.90296771 36.9520456 94.82572767 41.53513606 97.74804688 46.11889648 C98.60789185 47.47011597 98.60789185 47.47011597 99.48510742 48.84863281 C105.91727227 58.95606593 112.37925374 69.04440562 118.84082031 79.13305664 C122.18609636 84.35673493 125.52948501 89.58162089 128.87304688 94.80639648 C130.20637097 96.88973573 131.53970431 98.97306906 132.87304688 101.05639648 C135.53971354 105.22306315 138.20638021 109.38972982 140.87304688 113.55639648 C141.53320801 114.58788818 142.19336914 115.61937988 142.87353516 116.68212891 C144.20527784 118.76299718 145.53698364 120.84388906 146.86865234 122.92480469 C150.22601867 128.17104879 153.58404875 133.41686588 156.94335938 138.66186523 C163.88819873 149.50639629 170.82998459 160.35279738 177.73168945 171.22485352 C180.55825843 175.67672968 183.39528745 180.12098756 186.25976562 184.54858398 C193.85631416 196.32600193 201.06797544 208.29060156 208.10083008 220.41015625 C208.44506516 221.00315018 208.78930023 221.5961441 209.14396667 222.20710754 C210.12705235 223.90115515 211.10967632 225.59547068 212.09228516 227.28979492 C213.63671105 229.90604477 215.23023953 232.47537587 216.86914062 235.03295898 C218.87304688 238.30639648 218.87304688 238.30639648 218.87304688 240.30639648 C219.53304687 240.30639648 220.19304687 240.30639648 220.87304688 240.30639648 C220.87304688 171.33639648 220.87304688 102.36639648 220.87304688 31.30639648 C209.32304687 31.30639648 197.77304687 31.30639648 185.87304688 31.30639648 C183.87304688 29.30639648 183.87304688 29.30639648 183.64599609 26.5090332 C183.66170654 24.76517334 183.66170654 24.76517334 183.67773438 22.98608398 C183.68740234 21.10083008 183.68740234 21.10083008 183.69726562 19.17749023 C183.72240234 17.19942383 183.72240234 17.19942383 183.74804688 15.18139648 C183.75807705 13.84155928 183.76720284 12.50171497 183.77539062 11.16186523 C183.79902612 7.87653076 183.83197453 4.59155183 183.87304688 1.30639648 C186.19646817 0.14468583 187.53733797 0.17826152 190.12426758 0.17268372 C191.01602692 0.16841873 191.90778625 0.16415375 192.8265686 0.15975952 C193.80741425 0.16021271 194.78825989 0.16066589 195.79882812 0.16113281 C197.34526505 0.15609489 197.34526505 0.15609489 198.92294312 0.1509552 C202.34382316 0.14142637 205.76465437 0.13950123 209.18554688 0.13842773 C211.55444357 0.13521689 213.92334006 0.13185295 216.29223633 0.12834167 C221.26221171 0.12234584 226.23216969 0.12050228 231.20214844 0.12109375 C237.58493041 0.12119549 243.96760142 0.10753332 250.35035706 0.09032154 C255.24353554 0.07922941 260.13668694 0.07717367 265.02987671 0.07770348 C267.38390486 0.07651952 269.73793362 0.0720747 272.09194946 0.06437111 C275.37713509 0.05462582 278.66207647 0.05742741 281.94726562 0.06347656 C283.41853409 0.0550473 283.41853409 0.0550473 284.91952515 0.04644775 C285.81128448 0.05064224 286.70304382 0.05483673 287.62182617 0.05915833 C288.3990654 0.05861356 289.17630463 0.05806879 289.97709656 0.05750751 C291.87304688 0.30639648 291.87304688 0.30639648 293.87304688 2.30639648 C294.13183594 4.87255859 294.13183594 4.87255859 294.13867188 8.08374023 C294.14125 9.23680664 294.14382813 10.38987305 294.14648438 11.57788086 C294.13875 12.78766602 294.13101562 13.99745117 294.12304688 15.24389648 C294.13078125 16.44981445 294.13851563 17.65573242 294.14648438 18.89819336 C294.14261719 20.62972656 294.14261719 20.62972656 294.13867188 22.39624023 C294.13641602 23.45705811 294.13416016 24.51787598 294.13183594 25.61083984 C293.87304688 28.30639648 293.87304688 28.30639648 291.87304688 31.30639648 C289.17764373 31.57325861 286.71457223 31.65457722 284.02148438 31.59936523 C283.2474527 31.59512039 282.47342102 31.59087555 281.67593384 31.58650208 C279.19962011 31.56968646 276.72411529 31.53203043 274.24804688 31.49389648 C272.57097528 31.47885331 270.89389095 31.46516426 269.21679688 31.45288086 C265.10190106 31.4197737 260.98761119 31.36797285 256.87304688 31.30639648 C256.87380632 31.86598928 256.87456576 32.42558208 256.87534821 33.00213224 C256.92007414 66.14525025 256.95440469 99.28836071 256.97517753 132.43150212 C256.97767904 136.4082736 256.98026768 140.38504502 256.98291016 144.36181641 C256.98369709 145.54940538 256.98369709 145.54940538 256.98449992 146.76098605 C256.99320992 159.5917906 257.00898315 172.42257728 257.02735247 185.25337122 C257.04603499 198.41237899 257.0571601 211.57137739 257.06122386 224.73039788 C257.06397235 232.85460023 257.0726629 240.9787521 257.08887981 249.10293891 C257.10067051 255.32553261 257.1019624 261.54808757 257.09926224 267.77069092 C257.09981456 270.32856241 257.1038204 272.88643573 257.11145782 275.44429588 C257.12134404 278.92467164 257.11903892 282.40482776 257.11355591 285.88520813 C257.12229443 287.41875229 257.12229443 287.41875229 257.13120949 288.98327714 C257.1272274 289.91235012 257.1232453 290.84142309 257.11914253 291.79864979 C257.11990197 292.60251773 257.12066141 293.40638567 257.12144387 294.23461324 C256.87304688 296.30639648 256.87304688 296.30639648 254.87304688 299.30639648 C252.35295614 299.6490244 250.08342965 299.79833992 247.55664062 299.81030273 C246.82615005 299.82028793 246.09565948 299.83027313 245.34303284 299.84056091 C243.79214136 299.85576786 242.2411515 299.86278591 240.69018555 299.86230469 C238.34252899 299.86880789 235.99923969 299.92307978 233.65234375 299.98022461 C226.28612623 300.06869677 219.67248078 300.12672998 213.70361328 295.24731445 C210.24457701 291.57975799 207.52964186 287.5779861 204.87304688 283.30639648 C204.08244873 282.08799072 204.08244873 282.08799072 203.27587891 280.8449707 C201.64234584 278.3235277 200.03666567 275.78603196 198.43554688 273.24389648 C197.2054129 271.30097615 195.97493058 269.35827634 194.74414062 267.41577148 C194.10976074 266.41352539 193.47538086 265.4112793 192.82177734 264.37866211 C189.56266133 259.24051178 186.2802377 254.11732611 182.99804688 248.99389648 C182.3310376 247.95225342 181.66402832 246.91061035 180.97680664 245.83740234 C179.61972763 243.71811712 178.26254968 241.59889524 176.90527344 239.47973633 C174.22512618 235.29466256 171.54621502 231.10879841 168.86743164 226.92285156 C167.53988719 224.848411 166.21225075 222.77402931 164.88452148 220.69970703 C161.48744157 215.39236818 158.09144722 210.08433942 154.69726562 204.77514648 C146.00290589 191.17755508 146.00290589 191.17755508 137.24804688 177.61889648 C132.59317235 170.44415535 127.99790678 163.23234208 123.41113281 156.01391602 C118.95290621 148.99901327 114.47931274 141.99410088 109.99804688 134.99389648 C108.99596191 133.42623535 108.99596191 133.42623535 107.97363281 131.8269043 C104.63223284 126.60225729 101.27931857 121.38576865 97.90039062 116.18530273 C90.51195138 104.7835811 83.37637593 93.27117983 76.49804688 81.55639648 C75.94130783 80.61105042 75.94130783 80.61105042 75.37332153 79.64660645 C74.31927428 77.85348211 73.27079123 76.05724395 72.22460938 74.25952148 C71.62471191 73.22988281 71.02481445 72.20024414 70.40673828 71.1394043 C69.01653551 68.57144617 67.88882047 66.04064065 66.87304688 63.30639648 C66.21304688 63.30639648 65.55304688 63.30639648 64.87304688 63.30639648 C64.87304688 130.95639648 64.87304688 198.60639648 64.87304688 268.30639648 C76.42304688 268.30639648 87.97304687 268.30639648 99.87304688 268.30639648 C100.86304688 268.96639648 101.85304688 269.62639648 102.87304688 270.30639648 C103.24536133 272.87255859 103.24536133 272.87255859 103.23632812 276.08374023 C103.23536133 277.81333984 103.23536133 277.81333984 103.234375 279.57788086 C103.21826172 280.78766602 103.20214844 281.99745117 103.18554688 283.24389648 C103.18876953 284.44981445 103.19199219 285.65573242 103.1953125 286.89819336 C103.13998827 295.9059844 103.13998827 295.9059844 100.87304688 299.30639648 C98.96147919 299.68391991 98.96147919 299.68391991 96.5838623 299.68734741 C95.68368881 299.69580688 94.78351532 299.70426636 93.85606384 299.71298218 C92.37076927 299.70387314 92.37076927 299.70387314 90.85546875 299.69458008 C89.81475723 299.69983704 88.77404572 299.70509399 87.70179749 299.71051025 C84.24831302 299.72375617 80.79528634 299.71495574 77.34179688 299.70483398 C74.95047924 299.70685339 72.5591622 299.70976371 70.16784668 299.71353149 C65.15073801 299.71796108 60.13378933 299.71150327 55.11669922 299.69750977 C48.67329932 299.68041771 42.23027426 299.69025548 35.78688812 299.70822716 C30.84736283 299.71904777 25.90792697 299.71562655 20.96839905 299.70784378 C18.59204566 299.70583701 16.21568424 299.70831766 13.83934021 299.71528244 C10.52288179 299.7228685 7.20703747 299.71133231 3.890625 299.69458008 C2.90042862 299.70065277 1.91023224 299.70672546 0.89002991 299.71298218 C-0.01014359 299.70452271 -0.91031708 299.69606323 -1.83776855 299.68734741 C-2.62238213 299.68621634 -3.4069957 299.68508526 -4.21538544 299.68391991 C-4.84620277 299.55933718 -5.47702011 299.43475445 -6.12695312 299.30639648 C-8.43426083 295.84543493 -8.3839003 294.47698551 -8.39257812 290.39624023 C-8.39644531 288.66470703 -8.39644531 288.66470703 -8.40039062 286.89819336 C-8.39265625 285.69227539 -8.38492188 284.48635742 -8.37695312 283.24389648 C-8.3846875 282.03411133 -8.39242187 280.82432617 -8.40039062 279.57788086 C-8.3978125 278.42481445 -8.39523438 277.27174805 -8.39257812 276.08374023 C-8.39032227 275.02405029 -8.38806641 273.96436035 -8.38574219 272.87255859 C-8.12695312 270.30639648 -8.12695312 270.30639648 -6.12695312 268.30639648 C5.42304687 268.30639648 16.97304687 268.30639648 28.87304688 268.30639648 C28.87304688 190.09639648 28.87304688 111.88639648 28.87304688 31.30639648 C17.65304688 31.30639648 6.43304688 31.30639648 -5.12695312 31.30639648 C-8.12695312 28.30639648 -8.12695312 28.30639648 -8.49926758 25.61083984 C-8.49628662 24.55002197 -8.49330566 23.4892041 -8.49023438 22.39624023 C-8.48958984 21.24188477 -8.48894531 20.0875293 -8.48828125 18.89819336 C-8.47216797 17.69227539 -8.45605469 16.48635742 -8.43945312 15.24389648 C-8.44267578 14.03411133 -8.44589844 12.82432617 -8.44921875 11.57788086 C-8.3785117 0.0783437 -8.3785117 0.0783437 0 0 Z " fill="#000000" transform="translate(107.126953125,101.693603515625)"/>
</svg>
