<?xml version="1.0" encoding="UTF-8"?>
<svg version="1.1" xmlns="http://www.w3.org/2000/svg" width="1024" height="1024">
<path d="M0 0 C337.92 0 675.84 0 1024 0 C1024 337.92 1024 675.84 1024 1024 C686.08 1024 348.16 1024 0 1024 C0 686.08 0 348.16 0 0 Z " fill="#000000" transform="translate(0,0)"/>
<path d="M0 0 C4.5634313 2.2002258 6.82623534 4.47187718 9 9 C9.28306899 11.71000753 9.40566695 14.18589627 9.38095093 16.89224243 C9.3856309 17.68096249 9.39031087 18.46968255 9.39513266 19.28230321 C9.40708772 21.92226049 9.3976233 24.56169913 9.38818359 27.20166016 C9.39224927 29.09585879 9.39759112 30.99005506 9.40411377 32.88424683 C9.41779925 38.0292124 9.41248211 43.17399763 9.40297651 48.31896639 C9.39537967 53.70836656 9.40242622 59.09775132 9.40713501 64.4871521 C9.4125953 73.54436003 9.40539671 82.60149461 9.39111328 91.65869141 C9.37481582 102.11336215 9.38005306 112.5678571 9.3965925 123.02252352 C9.4102349 132.0070259 9.41211268 140.99147553 9.40427649 149.97598493 C9.3996113 155.3379481 9.39894272 160.69982886 9.40888596 166.06178665 C9.41759235 171.10974155 9.41146684 176.1574716 9.39420319 181.20540237 C9.39025663 183.05199817 9.39134078 184.89861308 9.39799118 186.74520111 C9.44128742 199.99538828 8.71505058 211.70437466 1 223 C0.47664063 223.76699219 -0.04671875 224.53398438 -0.5859375 225.32421875 C-7.36111609 233.91072059 -16.81815887 238.82651657 -26.10888672 244.29248047 C-30.83236879 247.08221477 -35.50618266 249.95279668 -40.1875 252.8125 C-42.1144536 253.98328647 -44.04153922 255.15385567 -45.96875 256.32421875 C-52.39121315 260.23156928 -58.78925082 264.17817113 -65.1875 268.125 C-73.51374661 273.25812707 -81.86414331 278.34550407 -90.26049805 283.36303711 C-97.35901948 287.60715658 -104.43173831 291.89325461 -111.5 296.1875 C-112.69261756 296.91163656 -113.88524455 297.63575759 -115.07788086 298.35986328 C-120.54432669 301.67970738 -126.00830752 305.00348501 -131.46565247 308.33827209 C-138.96134977 312.9185446 -146.47138508 317.47398986 -154 322 C-155.01868164 322.61375488 -156.03736328 323.22750977 -157.08691406 323.85986328 C-159.9030952 325.54742932 -162.73004286 327.21493202 -165.5625 328.875 C-166.36421631 329.35686768 -167.16593262 329.83873535 -167.99194336 330.33520508 C-175.55003774 334.70684942 -183.69589774 337.42591565 -192.5 337.4375 C-193.96953125 337.46650391 -193.96953125 337.46650391 -195.46875 337.49609375 C-205.07823082 336.14608925 -213.4436325 331.39251299 -221.75 326.625 C-222.82040527 326.01575684 -223.89081055 325.40651367 -224.99365234 324.77880859 C-228.33680227 322.8655631 -231.66938653 320.93497427 -235 319 C-236.62373535 318.06414062 -236.62373535 318.06414062 -238.28027344 317.109375 C-241.40642488 315.29964793 -244.51787823 313.46717304 -247.625 311.625 C-248.56569336 311.07924316 -249.50638672 310.53348633 -250.47558594 309.97119141 C-256.37934892 306.41456558 -263.70561637 301.91358816 -265.57191467 294.82896423 C-266.08656746 291.42792656 -266.11946812 288.17204218 -266.11352539 284.73120117 C-266.11367142 284.01846039 -266.11381744 283.3057196 -266.1139679 282.57138062 C-266.11327432 280.2285451 -266.105508 277.88579028 -266.09765625 275.54296875 C-266.0957901 273.91343733 -266.09436713 272.28390535 -266.09336853 270.65437317 C-266.08955888 266.37511636 -266.07974188 262.09589374 -266.06866455 257.81665039 C-266.05841702 253.44613101 -266.05386376 249.07560607 -266.04882812 244.70507812 C-266.03811818 236.1367031 -266.02106045 227.56835581 -266 219 C-262.30990601 217.87338257 -262.30990601 217.87338257 -259.52075195 219.01293945 C-258.14342896 219.80510864 -258.14342896 219.80510864 -256.73828125 220.61328125 C-255.70952881 221.1973877 -254.68077637 221.78149414 -253.62084961 222.38330078 C-252.52909424 223.01993652 -251.43733887 223.65657227 -250.3125 224.3125 C-249.19431885 224.95171387 -248.0761377 225.59092773 -246.92407227 226.24951172 C-239.73942154 230.3687321 -232.57771398 234.53471797 -225.47973633 238.80200195 C-224.26333942 239.52979493 -223.04090448 240.24761261 -221.81201172 240.95410156 C-220.56374521 241.67460462 -219.33147283 242.42330247 -218.11376953 243.19433594 C-213.43411041 245.92891305 -209.85764634 246.49195322 -204.49023438 245.671875 C-200.25197759 244.5283767 -196.87494996 242.42190095 -193.25 240 C-192.47124512 239.50234131 -191.69249023 239.00468262 -190.89013672 238.49194336 C-188.58151299 237.01208668 -186.28972426 235.50888009 -184 234 C-181.71154389 232.51580707 -179.41800513 231.03967234 -177.125 229.5625 C-176.29585083 229.02435669 -176.29585083 229.02435669 -175.44995117 228.4753418 C-168.87023834 224.22433581 -162.12689706 220.24645152 -155.40234375 216.23046875 C-139.29590625 206.61016102 -123.33871931 196.77676147 -107.55859375 186.62988281 C-105.09460836 185.06026769 -102.61391865 183.52187772 -100.125 181.9921875 C-85.22609492 172.88884857 -85.22609492 172.88884857 -77 158 C-76.61663128 153.09809127 -76.67242915 148.22612863 -76.75 143.3125 C-76.75773437 141.33540039 -76.75773437 141.33540039 -76.765625 139.31835938 C-76.68445041 132.07253534 -76.68445041 132.07253534 -78 125 C-83.77653315 124.5556513 -87.40789948 125.8113672 -92.25 128.75 C-92.93473389 129.15049561 -93.61946777 129.55099121 -94.32495117 129.96362305 C-102.19534996 134.61258345 -109.90112116 139.53695422 -117.59863281 144.46484375 C-121.45245098 146.92852905 -125.31974067 149.37078022 -129.1875 151.8125 C-129.95956787 152.30024902 -130.73163574 152.78799805 -131.52709961 153.29052734 C-140.99766641 159.26879251 -150.49520519 165.20378626 -160 171.12744141 C-162.95099755 172.96941335 -165.89764111 174.81819058 -168.84375 176.66796875 C-170.68737466 177.82051302 -172.53111919 178.97286557 -174.375 180.125 C-175.19983887 180.64505615 -176.02467773 181.1651123 -176.87451172 181.70092773 C-187.55409047 188.35365535 -197.06376142 193.83975621 -210 192 C-225.52306104 186.73037629 -239.6684441 175.35269935 -253 166 C-253.88316895 165.39430176 -254.76633789 164.78860352 -255.67626953 164.16455078 C-256.46501465 163.59591309 -257.25375977 163.02727539 -258.06640625 162.44140625 C-259.07296265 161.72706421 -259.07296265 161.72706421 -260.09985352 160.99829102 C-267.33167712 153.39293624 -266.55931119 144.58344325 -266.4609375 134.7578125 C-266.45855011 133.18220165 -266.45764838 131.60658792 -266.4581604 130.03097534 C-266.45504586 126.74442485 -266.43857598 123.45831479 -266.41162109 120.171875 C-266.37747446 115.95497002 -266.36999798 111.73854389 -266.37151146 107.5215168 C-266.37096866 104.27535414 -266.36001884 101.02929657 -266.34550858 97.78316879 C-266.33913934 96.22740345 -266.33520139 94.67162622 -266.33372116 93.11584854 C-266.32939886 90.94958245 -266.31192694 88.78383163 -266.29052734 86.61767578 C-266.27909195 84.76857101 -266.27909195 84.76857101 -266.26742554 82.8821106 C-266 80 -266 80 -264 78 C-257.99407783 76.99296471 -254.22985184 79.84522827 -249.375 82.9375 C-247.60946433 84.02879037 -245.84383349 85.11992678 -244.078125 86.2109375 C-243.11712891 86.81131836 -242.15613281 87.41169922 -241.16601562 88.03027344 C-235.80073276 91.36826712 -230.39814263 94.64475043 -224.99688721 97.92410278 C-223.15265749 99.04567997 -221.31118627 100.17166844 -219.47021484 101.29858398 C-218.31612741 102.00251794 -217.16199529 102.70637865 -216.0078125 103.41015625 C-214.48631592 104.34033569 -214.48631592 104.34033569 -212.93408203 105.28930664 C-206.20288594 109.26006883 -206.20288594 109.26006883 -198.625 110.375 C-197.31402344 110.38660156 -197.31402344 110.38660156 -195.9765625 110.3984375 C-187.7801058 109.30127401 -181.45957244 105.00479708 -174.6875 100.5625 C-172.71764041 99.29006654 -170.74758516 98.01793592 -168.77734375 96.74609375 C-167.80007324 96.11171387 -166.82280273 95.47733398 -165.81591797 94.82373047 C-161.81117313 92.23005577 -157.78446129 89.67213462 -153.75 87.125 C-152.99388428 86.64732178 -152.23776855 86.16964355 -151.45874023 85.67749023 C-135.52572213 75.63937632 -119.43073657 65.85895169 -103.33740234 56.08081055 C-92.68276037 49.60143678 -82.08724442 43.02712073 -71.49658203 36.44384766 C-61.15376487 30.01529548 -50.78701691 23.62702327 -40.38406372 17.29626465 C-39.19609106 16.57315951 -38.00847214 15.8494728 -36.82125854 15.12512207 C-32.89301975 12.72943371 -28.95029439 10.35911739 -25 8 C-24.08115021 7.44454498 -24.08115021 7.44454498 -23.14373779 6.87786865 C-21.27778202 5.75288401 -19.40376089 4.64258396 -17.52734375 3.53515625 C-16.4199585 2.87523682 -15.31257324 2.21531738 -14.17163086 1.53540039 C-9.38641609 -0.78114304 -5.16360364 -1.16181082 0 0 Z " fill="#fff" transform="translate(707,427)"/>
<path d="M0 0 C0.61195221 0.35325851 1.22390442 0.70651703 1.85440063 1.07048035 C8.07801918 4.6790207 14.22088665 8.41833842 20.35546875 12.17578125 C30.72479532 18.5070785 41.14713211 24.74277833 51.60546875 30.92578125 C62.46397051 37.34706205 73.24430467 43.87608595 83.96972656 50.51806641 C92.66162291 55.88911628 101.43820345 61.10739655 110.23999023 66.29589844 C118.31983697 71.06494188 126.34685896 75.91368593 134.35546875 80.80078125 C144.4387905 86.95237772 154.59149964 92.97268955 164.79562378 98.92147827 C175.06607684 104.91195658 185.2535898 111.02906213 195.39160156 117.2409668 C200.92814472 120.6289661 206.48627475 123.96366221 212.125 127.1796875 C213.15761963 127.77233398 214.19023926 128.36498047 215.25415039 128.97558594 C217.19009535 130.08147722 219.13301259 131.175281 221.08374023 132.25488281 C221.93137939 132.74053711 222.77901855 133.22619141 223.65234375 133.7265625 C224.39581055 134.14204346 225.13927734 134.55752441 225.90527344 134.9855957 C226.42508789 135.44023193 226.94490234 135.89486816 227.48046875 136.36328125 C227.48046875 137.68328125 227.48046875 139.00328125 227.48046875 140.36328125 C225.99365234 141.69677734 225.99365234 141.69677734 223.87890625 142.88671875 C223.09008057 143.34296631 222.30125488 143.79921387 221.48852539 144.26928711 C220.18516235 144.99643921 220.18516235 144.99643921 218.85546875 145.73828125 C217.00616249 146.80704586 215.15856398 147.87876974 213.3125 148.953125 C212.34908691 149.51112793 211.38567383 150.06913086 210.39306641 150.64404297 C205.70167868 153.41325943 201.12432939 156.35427321 196.54296875 159.30078125 C150.04099009 189.06731601 150.04099009 189.06731601 139.48046875 188.36328125 C133.44218291 186.4014753 128.35748498 183.70122856 122.98046875 180.36328125 C121.21032948 179.28271635 119.43944203 178.20337653 117.66796875 177.125 C116.69085938 176.52864746 115.71375 175.93229492 114.70703125 175.31787109 C109.1737983 171.96594441 103.60013018 168.68235516 98.03170776 165.38934326 C84.612346 157.45012821 71.25863461 149.40858205 57.9453125 141.29296875 C50.80773937 136.95435934 43.64289531 132.66073719 36.48046875 128.36328125 C36.48046875 219.77328125 36.48046875 311.18328125 36.48046875 405.36328125 C32.62625018 404.39972661 30.25689892 403.21845153 26.87109375 401.21484375 C25.73945801 400.548479 24.60782227 399.88211426 23.44189453 399.19555664 C22.2046328 398.45999965 20.96749426 397.72423542 19.73046875 396.98828125 C18.44536558 396.22806925 17.16004239 395.46822909 15.87451172 394.70874023 C13.15199387 393.09912446 10.4313953 391.48632242 7.71191406 389.87158203 C4.17904469 387.77514844 0.63975047 385.6898605 -2.90209961 383.60864258 C-5.71967826 381.95240479 -8.53492542 380.29223127 -11.34973145 378.63128662 C-12.68745257 377.84263729 -14.0258854 377.05519361 -15.3651123 376.269104 C-22.60130661 372.01838423 -29.73587827 367.64932679 -36.734375 363.015625 C-37.36056732 362.60304947 -37.98675964 362.19047394 -38.63192749 361.76539612 C-46.67875811 356.373242 -50.82676362 350.68723675 -53.51953125 341.36328125 C-54.06607432 336.9200524 -54.06461367 332.5276983 -54.03419495 328.05508423 C-54.04114047 326.74418646 -54.048086 325.4332887 -54.055242 324.08266675 C-54.07377778 320.46839054 -54.06759604 316.8545266 -54.05708897 313.2402339 C-54.05007094 309.33281412 -54.06611462 305.42547683 -54.0790863 301.51808167 C-54.10068869 293.87255785 -54.100609 286.22718311 -54.09246076 278.58163883 C-54.08615138 272.36486025 -54.08730639 266.14812502 -54.09373283 259.93134689 C-54.09463449 259.04527551 -54.09553614 258.15920413 -54.09646512 257.24628209 C-54.0983164 255.4460092 -54.10017896 253.64573631 -54.10205268 251.84546344 C-54.11861828 234.97684362 -54.10992276 218.10830751 -54.0930671 201.23969273 C-54.07837387 185.82246305 -54.09299542 170.40542832 -54.12183727 154.98822375 C-54.15126261 139.14053406 -54.16219423 123.29293425 -54.15265507 107.44521844 C-54.15163256 105.65109469 -54.15063795 103.85697092 -54.14967155 102.06284714 C-54.14919516 101.18020616 -54.14871877 100.29756519 -54.14822795 99.38817752 C-54.14606782 93.18351039 -54.15584658 86.97892874 -54.17044258 80.77428055 C-54.18799874 73.20598864 -54.18780174 65.63794512 -54.16509093 58.06966282 C-54.15397794 54.21184698 -54.15071864 50.35446821 -54.16939163 46.49667168 C-54.18941445 42.30590626 -54.17034623 38.1161977 -54.14772034 33.92544556 C-54.15955607 32.71822645 -54.17139179 31.51100734 -54.18358618 30.26720583 C-54.06513298 19.43561233 -50.99805935 9.98118237 -43.41015625 2.046875 C-30.04253336 -9.85693795 -14.78447669 -8.54145856 0 0 Z " fill="#fff" transform="translate(363.51953125,297.63671875)"/>
<path d="M0 0 C3.59814955 1.8508069 7.05601366 3.9005261 10.51293945 6.00146484 C11.50696777 6.59733398 12.50099609 7.19320313 13.52514648 7.80712891 C18.82578951 10.98892468 24.10945046 14.19681962 29.37722778 17.43270874 C36.70772814 21.93288789 44.11015954 26.28994963 51.57543945 30.56396484 C68.18591269 40.08540701 84.73649914 49.72944116 101.01293945 59.81396484 C101.64731934 60.20430908 102.28169922 60.59465332 102.93530273 60.99682617 C108.67920695 64.59667377 108.67920695 64.59667377 110.51293945 67.00146484 C111.31505426 72.5271446 111.31505426 72.5271446 110.51293945 75.00146484 C105.63754949 79.80456731 99.68873186 83.17667374 93.88793945 86.75146484 C92.85193604 87.39398193 91.81593262 88.03649902 90.74853516 88.69848633 C87.34113027 90.80681968 83.92823503 92.90595149 80.51293945 95.00146484 C79.60804779 95.55716156 79.60804779 95.55716156 78.68487549 96.12408447 C74.36136699 98.77834075 70.03230576 101.42337548 65.70043945 104.06396484 C65.11969666 104.41881958 64.53895386 104.77367432 63.94061279 105.13928223 C39.98149509 119.76505804 39.98149509 119.76505804 30.51293945 119.00146484 C22.92430185 116.71404762 16.30406304 112.69107063 9.62295532 108.52142334 C6.56634045 106.61443286 3.49326448 104.73418118 0.4230957 102.84912109 C-0.21954727 102.45354004 -0.86219025 102.05795898 -1.52430725 101.65039062 C-8.85828489 97.14245199 -16.26523619 92.75902222 -23.67456055 88.37646484 C-26.37150614 86.779367 -29.06802173 85.18154427 -31.7644043 83.58349609 C-32.41884521 83.19570984 -33.07328613 82.80792358 -33.74755859 82.40838623 C-41.1066749 78.04537647 -48.44624469 73.64990757 -55.77368164 69.23388672 C-60.61009507 66.31975014 -65.45647156 63.42715812 -70.3347168 60.58349609 C-71.71965332 59.77029907 -71.71965332 59.77029907 -73.13256836 58.94067383 C-74.84988733 57.93345462 -76.57159119 56.93365594 -78.29858398 55.94311523 C-83.54719729 52.85173321 -87.44639288 50.05842613 -89.48706055 44.06396484 C-89.48706055 39.86716627 -88.06106283 38.29023822 -85.48706055 35.00146484 C-83.19089396 33.22200831 -81.00903807 31.69957814 -78.54956055 30.18896484 C-77.83372803 29.73739014 -77.11789551 29.28581543 -76.38037109 28.82055664 C-64.85490492 21.63119356 -53.06759999 14.84450459 -41.30499268 8.05181885 C-40.05205866 7.32790609 -38.79977744 6.60286271 -37.54803467 5.87689209 C-35.62699364 4.76322869 -33.70380747 3.6533606 -31.7800293 2.54443359 C-30.64460693 1.88854248 -29.50918457 1.23265137 -28.33935547 0.55688477 C-20.18976778 -3.88726684 -8.44220519 -3.82136608 0 0 Z " fill="#fff" transform="translate(605.487060546875,288.99853515625)"/>
</svg>
